<?xml version="1.0" standalone="no"?>
<!DOCTYPE svg PUBLIC "-//W3C//DTD SVG 20010904//EN"
 "http://www.w3.org/TR/2001/REC-SVG-20010904/DTD/svg10.dtd">
<svg version="1.0" xmlns="http://www.w3.org/2000/svg"
 width="585.000000pt" height="585.000000pt" viewBox="0 0 585.000000 585.000000"
 preserveAspectRatio="xMidYMid meet">
<metadata>
Created by potrace 1.11, written by Peter Selinger 2001-2013
</metadata>
<g transform="translate(0.000000,585.000000) scale(0.100000,-0.100000)"
fill="#000000" stroke="none">
<path d="M423 5843 c9 -2 25 -2 35 0 9 3 1 5 -18 5 -19 0 -27 -2 -17 -5z"/>
<path d="M5393 5843 c9 -2 25 -2 35 0 9 3 1 5 -18 5 -19 0 -27 -2 -17 -5z"/>
<path d="M335 5825 c-39 -17 -21 -18 25 0 19 7 28 14 20 14 -8 0 -28 -6 -45
-14z"/>
<path d="M5490 5825 c46 -18 64 -17 25 0 -16 8 -37 14 -45 14 -8 0 1 -7 20
-14z"/>
<path d="M264 5794 c-18 -14 -18 -14 6 -3 31 14 36 19 24 19 -6 0 -19 -7 -30
-16z"/>
<path d="M5551 5806 c2 -2 15 -9 29 -15 24 -11 24 -11 6 3 -16 13 -49 24 -35
12z"/>
<path d="M5610 5777 c0 -2 15 -14 33 -27 20 -15 27 -17 18 -6 -13 16 -51 41
-51 33z"/>
<path d="M160 5719 l-45 -41 48 37 c41 33 53 45 45 45 -2 0 -23 -18 -48 -41z"/>
<path d="M5700 5705 c13 -14 26 -25 28 -25 3 0 -5 11 -18 25 -13 14 -26 25
-28 25 -3 0 5 -11 18 -25z"/>
<path d="M98 5653 c-18 -21 -31 -43 -25 -43 2 0 13 14 25 30 25 33 24 41 0 13z"/>
<path d="M5750 5643 c13 -18 25 -33 27 -33 8 0 -17 38 -33 51 -11 9 -9 2 6
-18z"/>
<path d="M50 5579 c-7 -11 -10 -23 -7 -25 2 -2 9 7 15 21 14 30 7 33 -8 4z"/>
<path d="M5791 5580 c14 -31 19 -36 19 -24 0 6 -7 19 -16 30 -14 18 -14 18 -3
-6z"/>
<path d="M420 5577 c-49 -16 -133 -102 -148 -153 -17 -59 -18 -4938 0 -4996 6
-22 31 -62 55 -88 77 -86 -32 -80 1420 -80 l1283 0 -101 152 c-82 122 -115
184 -171 316 -38 90 -89 225 -114 300 -114 348 -157 481 -174 537 -77 255
-113 353 -156 421 -25 41 -46 74 -47 74 -1 0 -38 7 -82 16 -222 45 -324 60
-470 69 -166 10 -202 16 -295 51 l-95 35 -46 76 -47 77 -99 0 -98 1 -38 40
c-36 38 -147 243 -147 271 0 7 -5 25 -12 41 -6 15 -12 31 -12 35 -1 3 -4 10
-8 14 -5 4 -8 15 -8 25 0 9 -16 75 -37 145 l-36 129 -2 300 -2 300 50 75 c75
111 197 268 197 253 0 -4 18 10 40 32 66 67 55 58 290 215 36 24 80 56 98 72
18 15 56 40 85 55 67 34 323 151 351 159 12 3 59 22 106 41 47 19 94 39 105
43 11 5 40 17 65 28 25 11 55 23 68 27 12 4 31 15 40 26 10 10 27 20 38 22 10
2 57 22 104 44 47 23 94 43 105 45 11 1 26 9 33 16 7 6 26 12 42 12 16 0 32 5
35 10 4 6 11 8 16 4 5 -3 16 -1 23 5 6 6 31 13 55 16 23 3 50 9 59 14 9 5 33
11 52 14 19 2 57 12 84 21 27 9 70 19 95 21 25 3 62 8 81 11 19 3 58 6 86 5
l51 -1 7 72 c6 71 33 149 56 163 24 15 119 32 151 27 19 -3 47 -15 62 -28 16
-13 32 -24 37 -24 4 0 20 -31 35 -69 l26 -69 62 -7 c34 -4 101 -19 148 -35
l86 -27 55 41 c30 23 83 65 117 95 l62 53 82 -4 c77 -4 87 -7 144 -46 81 -55
97 -77 123 -174 12 -46 33 -110 47 -143 16 -40 26 -86 29 -140 3 -67 7 -82 25
-95 12 -8 39 -34 61 -57 23 -23 49 -45 59 -48 10 -4 18 -9 16 -13 -2 -8 11
-26 50 -68 12 -13 20 -24 17 -24 -7 0 77 -105 124 -155 12 -13 22 -27 22 -31
0 -11 115 -124 127 -124 6 0 20 -11 30 -24 10 -13 32 -30 48 -39 17 -9 41 -26
55 -39 14 -13 39 -34 55 -47 17 -12 30 -26 30 -30 0 -8 59 -61 68 -61 3 0 28
-16 57 -35 29 -19 61 -35 71 -35 10 0 19 -5 19 -10 0 -9 37 -28 65 -34 6 -1
20 -7 32 -14 12 -7 26 -12 32 -12 17 0 15 1709 -1 1764 -16 55 -99 138 -154
154 -57 17 -4951 16 -5004 -1z"/>
<path d="M21 5509 c-6 -18 -11 -37 -10 -43 0 -6 7 7 15 28 8 22 12 41 10 43
-2 2 -9 -10 -15 -28z"/>
<path d="M5812 5535 c0 -5 6 -26 13 -45 7 -19 14 -28 14 -20 0 8 -6 29 -14 45
-7 17 -13 26 -13 20z"/>
<path d="M2 5410 c0 -19 2 -27 5 -17 2 9 2 25 0 35 -3 9 -5 1 -5 -18z"/>
<path d="M5842 5410 c0 -19 2 -27 5 -17 2 9 2 25 0 35 -3 9 -5 1 -5 -18z"/>
<path d="M3102 4440 c-73 -11 -212 -64 -296 -114 -121 -72 -159 -125 -146
-206 5 -34 7 -35 65 -43 84 -12 446 8 513 28 30 9 78 32 107 51 44 27 56 42
65 73 15 58 2 99 -46 147 -75 72 -123 84 -262 64z"/>
<path d="M1049 3591 c-64 -65 -20 -171 71 -171 33 0 48 6 71 29 64 65 20 171
-71 171 -33 0 -48 -6 -71 -29z"/>
<path d="M2 440 c0 -19 2 -27 5 -17 2 9 2 25 0 35 -3 9 -5 1 -5 -18z"/>
<path d="M11 384 c0 -11 3 -14 6 -6 3 7 2 16 -1 19 -3 4 -6 -2 -5 -13z"/>
<path d="M21 350 c0 -8 4 -22 9 -30 12 -18 12 -2 0 25 -6 13 -9 15 -9 5z"/>
<path d="M40 294 c0 -6 7 -19 16 -30 14 -18 14 -18 3 6 -14 31 -19 36 -19 24z"/>
<path d="M79 222 c5 -10 18 -25 27 -33 11 -9 9 -2 -6 19 -26 35 -36 42 -21 14z"/>
<path d="M140 145 c13 -14 26 -25 28 -25 3 0 -5 11 -18 25 -13 14 -26 25 -28
25 -3 0 5 -11 18 -25z"/>
<path d="M5699 143 l-24 -28 28 24 c15 14 27 26 27 28 0 8 -8 1 -31 -24z"/>
<path d="M189 106 c13 -16 51 -41 51 -33 0 2 -15 14 -32 27 -21 15 -28 17 -19
6z"/>
<path d="M264 56 c11 -9 24 -16 30 -16 12 0 7 5 -24 19 -24 11 -24 11 -6 -3z"/>
<path d="M335 25 c17 -8 37 -14 45 -14 8 0 -1 7 -20 14 -46 18 -64 17 -25 0z"/>
<path d="M423 3 c9 -2 25 -2 35 0 9 3 1 5 -18 5 -19 0 -27 -2 -17 -5z"/>
</g>
</svg>
